<svg xmlns="http://www.w3.org/2000/svg" viewBox="0 0 617.93 80.53"><defs><style>.cls-1{fill:#fff;}</style></defs><g id="Layer_2" data-name="Layer 2"><g id="Layer_6" data-name="Layer 6"><path class="cls-1" d="M55.89,44.8A23.45,23.45,0,0,0,47.65,38,103.79,103.79,0,0,0,35.28,33a59.11,59.11,0,0,1-11.2-4.59,6.61,6.61,0,0,1-3.59-5.94,6.67,6.67,0,0,1,2.13-5.32,8.26,8.26,0,0,1,5.6-1.85,9.85,9.85,0,0,1,6.61,2.19,8.08,8.08,0,0,1,2.8,6H58.35q-.56-11.08-8.51-17.31T28.89,0Q16.13,0,8.17,6.21T.22,23.41q0,7.38,3.47,12A23,23,0,0,0,12,42.33,88.15,88.15,0,0,0,24.41,47a76.17,76.17,0,0,1,8.12,2.8A15.94,15.94,0,0,1,37.35,53a6.47,6.47,0,0,1,2,4.82,6.54,6.54,0,0,1-2.46,5.43,10.52,10.52,0,0,1-6.72,2,9.7,9.7,0,0,1-6.72-2.29,9.91,9.91,0,0,1-3-6.67H0A22.63,22.63,0,0,0,4.31,69.44a25.15,25.15,0,0,0,10.92,8.29,40.57,40.57,0,0,0,15.46,2.8A34,34,0,0,0,46,77.28a24,24,0,0,0,9.91-8.74,22.63,22.63,0,0,0,3.42-12.21Q59.36,49.28,55.89,44.8Zm87.3-25.31A37.85,37.85,0,0,0,128.63,5.15,42.7,42.7,0,0,0,88,5.15,38.62,38.62,0,0,0,73.3,19.49a39.93,39.93,0,0,0-5.43,20.72A40.21,40.21,0,0,0,73.3,61,38.46,38.46,0,0,0,88,75.37a42.51,42.51,0,0,0,40.6,0A38.18,38.18,0,0,0,143.13,61a40.47,40.47,0,0,0,5.38-20.77A40.64,40.64,0,0,0,143.19,19.49ZM123.37,56.78q-5.67,6.27-15.07,6.27T93.12,56.84q-5.66-6.23-5.65-16.63t5.65-16.69q5.66-6.16,15.18-6.16t15.07,6.21Q129,29.8,129,40.21T123.37,56.78ZM225.68,1.12,203.84,55.55,181.77,1.12H159.15V79.74H178.3V32.48L196,79.74h15.45L229,32.59V79.74h19.15V1.12Zm93,16.85H262V1.12h56.73Zm0,30.89H262V32h56.73Zm0,30.88H262V62.89h56.73ZM387.85,18H331.12V1.12h56.73Zm0,30.89H331.12V32h56.73Zm0,30.88H331.12V62.89h56.73Z"/><path class="cls-1" d="M399.54,78.8a5.65,5.65,0,0,1,4-9.65,5.22,5.22,0,0,1,3.87,1.64,5.84,5.84,0,0,1,0,8,5.22,5.22,0,0,1-3.87,1.64A5.44,5.44,0,0,1,399.54,78.8Z"/><path class="cls-1" d="M418.37,31.43a30.44,30.44,0,0,1,11.42-11.6,31.52,31.52,0,0,1,16.06-4.19,32.55,32.55,0,0,1,18.11,5,28.68,28.68,0,0,1,11.29,14.19h-9.92a19.88,19.88,0,0,0-7.6-8.82,22,22,0,0,0-11.88-3.1A23.18,23.18,0,0,0,433.93,26a21.6,21.6,0,0,0-8.28,8.78,28.16,28.16,0,0,0-3,13.33,28,28,0,0,0,3,13.24,21.6,21.6,0,0,0,8.28,8.78,23.08,23.08,0,0,0,11.92,3.1,22.29,22.29,0,0,0,11.88-3,19.61,19.61,0,0,0,7.6-8.78h9.92A28.53,28.53,0,0,1,464,75.48a32.85,32.85,0,0,1-18.11,5,31.69,31.69,0,0,1-16.06-4.15,30.14,30.14,0,0,1-11.42-11.51,33.1,33.1,0,0,1-4.18-16.65A33.39,33.39,0,0,1,418.37,31.43Z"/><path class="cls-1" d="M497.45,76.39a30.29,30.29,0,0,1-11.51-11.56,33.09,33.09,0,0,1-4.23-16.7,33.12,33.12,0,0,1,4.23-16.7,30.36,30.36,0,0,1,11.51-11.56,33.57,33.57,0,0,1,32.3,0,30.08,30.08,0,0,1,11.47,11.52,33.28,33.28,0,0,1,4.19,16.74,33.28,33.28,0,0,1-4.19,16.74,30,30,0,0,1-11.47,11.52,33.57,33.57,0,0,1-32.3,0Zm28.07-6.15a21.73,21.73,0,0,0,8.37-8.82,27.82,27.82,0,0,0,3.05-13.29,27.7,27.7,0,0,0-3.05-13.33A21.89,21.89,0,0,0,525.57,26a24.83,24.83,0,0,0-24,0,21.89,21.89,0,0,0-8.32,8.78,27.7,27.7,0,0,0-3.05,13.33,27.82,27.82,0,0,0,3.05,13.29,21.73,21.73,0,0,0,8.37,8.82,24.64,24.64,0,0,0,23.93,0Z"/><path class="cls-1" d="M617.93,16.92v63h-8.28v-47l-20.93,47H582.9l-21-47V79.89H553.6v-63h8.91L585.81,69l23.3-52Z"/></g></g></svg>